<svg xmlns="http://www.w3.org/2000/svg" width="128" height="128" viewBox="0 0 128 128">
  <title>logo </title>
  <g>
    <g>
      <path d="M81.5,17.042C92.667,6.5,97.192,6.5,100.5,6.5c6.333,0,21,13.918,21,42.709S107,68.423,107,68.423Z" fill="#db8758"/>
      <path d="M46.5,17.042C35.333,6.5,30.808,6.5,27.5,6.5c-6.333,0-21,13.918-21,42.709S21,68.423,21,68.423Z" fill="#db8758"/>
      <path d="M109.25,72c0,15-15.58,36.67-45.25,36.67S18.75,87,18.75,72C18.75,19,41,12.5,64,12.5S109.25,19,109.25,72Z" fill="#f4a86c"/>
      <g>
        <circle cx="87.616" cy="50.126" r="3" fill="#663325"/>
        <circle cx="40.384" cy="50.126" r="3" fill="#663325"/>
      </g>
      <path d="M60.231,89.5c-10.576,1.667-13.615,14.667-12.521,20.834S57.922,118.12,64,118.12s15.2-1.625,16.29-7.791S78.345,91.162,67.769,89.5Z" fill="#51221c"/>
      <path d="M58,99.75H70a0,0,0,0,1,0,0V115.5a6,6,0,0,1-6,6h0a6,6,0,0,1-6-6V99.75A0,0,0,0,1,58,99.75Z" fill="#fc4b00"/>
      <path d="M58.833,82c-14.5,1.667-18.666,14.667-17.166,20.833s14,7.792,22.333,7.792S84.833,109,86.333,102.833,83.667,83.667,69.167,82Z" fill="#663325"/>
      <path d="M74.138,81.442c0,4.681-4.539,11.537-10.138,11.537S53.862,86.123,53.862,81.442,58.4,74.75,64,74.75,74.138,76.761,74.138,81.442Z" fill="#db8758"/>
    </g>
    <g>
      <path d="M8.415,32.126a1.775,1.775,0,0,0,.464.063A1.749,1.749,0,0,0,10.565,30.9c.323-1.173.683-2.338,1.072-3.462A1.75,1.75,0,1,0,8.33,26.294c-.414,1.2-.8,2.435-1.14,3.682A1.75,1.75,0,0,0,8.415,32.126Z" fill="#072130"/>
      <path d="M100.5,4.75c-3.26,0-7.71.026-17.364,8.448A63.468,63.468,0,0,0,64,10.75,63.468,63.468,0,0,0,44.864,13.2C35.21,4.776,30.76,4.75,27.5,4.75c-4.24,0-11.19,4.71-16.43,15.04a1.753,1.753,0,0,0,3.13,1.58C18.78,12.32,24.74,8.25,27.5,8.25c2.558,0,5.983.017,13.623,6.35C27.635,20.514,17.758,34.871,17.045,68.092A5.136,5.136,0,0,1,13,67.28c-2.16-1.56-4.75-5.97-4.75-18.07a74.964,74.964,0,0,1,.91-11.8,1.752,1.752,0,0,0-3.46-.55,78.27,78.27,0,0,0-.95,12.35c0,10.9,2.09,17.94,6.21,20.91a8.252,8.252,0,0,0,4.94,1.59,9.4,9.4,0,0,0,1.1-.07c0,.121,0,.238,0,.36,0,10.624,7.492,25.513,23.9,33.393a11.332,11.332,0,0,0,4.924,3.914c.039.46.093.905.17,1.323.76,4.29,4.73,7.33,11.22,8.6a7.744,7.744,0,0,0,13.58,0c6.49-1.27,10.46-4.31,11.22-8.59.077-.431.132-.884.171-1.347a11.371,11.371,0,0,0,4.908-3.883A45.414,45.414,0,0,0,102.8,93.04a1.75,1.75,0,0,0-2.73-2.19,41.6,41.6,0,0,1-11.721,9.933A20.374,20.374,0,0,0,75.861,81.939c.009-.166.028-.336.028-.5C75.889,76.235,71.333,73,64,73s-11.889,3.235-11.889,8.442c0,.161.019.331.028.5a20.374,20.374,0,0,0-12.488,18.845C27.064,93.571,20.5,81.21,20.5,72c0-53.29,22.45-57.75,43.5-57.75S107.5,18.71,107.5,72a28.087,28.087,0,0,1-3.4,12.68,1.751,1.751,0,0,0,3.11,1.61A31.541,31.541,0,0,0,111,72c0-.123,0-.241,0-.363a9.676,9.676,0,0,0,1.1.073,8.252,8.252,0,0,0,4.94-1.59c4.12-2.97,6.21-10.01,6.21-20.91C123.25,20.02,108.44,4.75,100.5,4.75ZM49.6,110.671a44.342,44.342,0,0,0,6.652,1.257v3.482C53.519,114.679,50.459,113.285,49.6,110.671ZM64,119.75a4.275,4.275,0,0,1-3.95-2.69c-.01-.02-.01-.03-.02-.05a3.939,3.939,0,0,1-.28-1.51v-3.261c1.7.1,3.163.131,4.18.131H64c1.02,0,2.509-.028,4.25-.136V115.5a4.016,4.016,0,0,1-.29,1.54c0,.01-.01.02-.01.03A4.276,4.276,0,0,1,64,119.75Zm7.75-4.34v-3.491a44.484,44.484,0,0,0,6.661-1.264C77.562,113.277,74.489,114.676,71.75,115.41ZM64,76.5c2.522,0,8.389.481,8.389,4.942,0,3.775-3.839,9.787-8.389,9.787s-8.389-6.012-8.389-9.787C55.611,76.981,61.478,76.5,64,76.5ZM52.878,85.419c1.643,4.606,5.812,9.31,11.122,9.31s9.47-4.693,11.117-9.294c8.54,3.917,10.5,12.923,9.513,16.985-1.08,4.43-11.45,6.45-20.63,6.45h-.08c-9.15,0-19.47-2.02-20.55-6.45C42.383,98.36,44.332,89.331,52.878,85.419ZM115,67.28a5.136,5.136,0,0,1-4.045.812c-.713-33.224-10.592-47.58-24.082-53.493C94.527,8.255,97.94,8.25,100.5,8.25c4.64,0,19.25,12.32,19.25,40.96C119.75,61.31,117.16,65.72,115,67.28Z" fill="#072130"/>
      <path d="M23.288,62.063C23.1,65.186,23,68.529,23,72a1.75,1.75,0,0,0,3.5,0c0-3.4.095-6.671.282-9.723a1.75,1.75,0,1,0-3.494-.214Z" fill="#072130"/>
      <path d="M82.865,50.126a4.75,4.75,0,1,0,4.75-4.75A4.756,4.756,0,0,0,82.865,50.126Zm6,0a1.25,1.25,0,1,1-1.25-1.25A1.251,1.251,0,0,1,88.865,50.126Z" fill="#072130"/>
      <path d="M35.635,50.126a4.75,4.75,0,1,0,4.75-4.75A4.756,4.756,0,0,0,35.635,50.126Zm6,0a1.25,1.25,0,1,1-1.25-1.25A1.252,1.252,0,0,1,41.635,50.126Z" fill="#072130"/>
    </g>
  </g>
</svg>
